<svg width="916" height="916" viewBox="0 0 916 916" fill="none" xmlns="http://www.w3.org/2000/svg">
<mask id="path-1-outside-1_1_18" maskUnits="userSpaceOnUse" x="299.688" y="196" width="316" height="466" fill="black">
<rect fill="white" x="299.688" y="196" width="316" height="466"/>
<path d="M307.844 654V204H407.688V354C409.719 337.125 414.875 324.547 423.156 316.266C431.594 307.984 443.156 303.844 457.844 303.844H508C535.344 303.844 558.781 313.766 578.313 333.609C598 353.297 607.844 376.813 607.844 404.156V654H508V404.156C508 390.406 503 378.609 493 368.766C483.156 358.922 471.437 354 457.844 354C444.094 354 432.297 358.922 422.453 368.766C412.609 378.609 407.688 390.406 407.688 404.156V654H307.844Z"/>
</mask>
<path d="M307.844 654V204H407.688V354C409.719 337.125 414.875 324.547 423.156 316.266C431.594 307.984 443.156 303.844 457.844 303.844H508C535.344 303.844 558.781 313.766 578.313 333.609C598 353.297 607.844 376.813 607.844 404.156V654H508V404.156C508 390.406 503 378.609 493 368.766C483.156 358.922 471.437 354 457.844 354C444.094 354 432.297 358.922 422.453 368.766C412.609 378.609 407.688 390.406 407.688 404.156V654H307.844Z" fill="black"/>
<path d="M307.844 654H300.344V661.5H307.844V654ZM307.844 204V196.5H300.344V204H307.844ZM407.688 204H415.188V196.5H407.688V204ZM407.688 354H400.188L415.134 354.896L407.688 354ZM423.156 316.266L417.903 310.913L417.878 310.938L417.853 310.962L423.156 316.266ZM578.312 333.609L572.967 338.87L572.988 338.892L573.009 338.913L578.312 333.609ZM607.844 654V661.5H615.344V654H607.844ZM508 654H500.5V661.5H508V654ZM493 368.766L487.697 374.069L487.718 374.09L487.739 374.111L493 368.766ZM407.688 654V661.5H415.188V654H407.688ZM315.344 654V204H300.344V654H315.344ZM307.844 211.5H407.688V196.5H307.844V211.5ZM400.188 204V354H415.188V204H400.188ZM415.134 354.896C417.052 338.96 421.797 328.231 428.46 321.569L417.853 310.962C407.953 320.863 402.386 335.29 400.241 353.104L415.134 354.896ZM428.41 321.618C435.123 315.029 444.619 311.344 457.844 311.344V296.344C441.694 296.344 428.064 300.939 417.903 310.913L428.41 321.618ZM457.844 311.344H508V296.344H457.844V311.344ZM508 311.344C533.293 311.344 554.817 320.43 572.967 338.87L583.658 328.348C562.746 307.102 537.394 296.344 508 296.344V311.344ZM573.009 338.913C591.319 357.222 600.344 378.842 600.344 404.156H615.344C615.344 374.783 604.681 349.371 583.616 328.306L573.009 338.913ZM600.344 404.156V654H615.344V404.156H600.344ZM607.844 646.5H508V661.5H607.844V646.5ZM515.5 654V404.156H500.5V654H515.5ZM515.5 404.156C515.5 388.351 509.661 374.642 498.261 363.421L487.739 374.111C496.34 382.577 500.5 392.462 500.5 404.156H515.5ZM498.303 363.462C487.091 352.25 473.48 346.5 457.844 346.5V361.5C469.395 361.5 479.222 365.594 487.697 374.069L498.303 363.462ZM457.844 346.5C442.077 346.5 428.38 352.232 417.15 363.462L427.756 374.069C436.213 365.612 446.111 361.5 457.844 361.5V346.5ZM417.15 363.462C405.919 374.693 400.188 388.389 400.188 404.156H415.188C415.188 392.423 419.3 382.526 427.756 374.069L417.15 363.462ZM400.188 404.156V654H415.188V404.156H400.188ZM407.688 646.5H307.844V661.5H407.688V646.5Z" fill="#FBFF4A" mask="url(#path-1-outside-1_1_18)"/>
<path d="M611.742 708.558L612.005 704.562H608H507.688H504.338L503.961 707.891C500.267 740.521 490.321 764.438 474.567 780.192C458.876 795.883 436.96 803.938 408.312 803.938H308C281.188 803.938 258.394 794.493 239.411 775.514C220.713 756.509 211.438 734.168 211.438 708.312V207.687C211.438 181.523 220.865 159.199 239.849 140.517L239.86 140.506L239.87 140.495C258.864 121.501 281.508 112.062 308 112.062H408.312C436.797 112.062 458.638 120.113 474.333 135.808C490.092 151.567 500.115 175.492 503.963 208.127L504.354 211.437H507.688H608H611.967L611.744 207.477C607.964 140.375 589.265 89.4301 555.105 55.2702C520.91 21.0752 471.776 4.25 408.312 4.25H207.688C150.75 4.25 102.435 24.4944 62.9731 64.9115L62.9678 64.9169L62.9625 64.9223C23.8686 105.288 4.25 152.934 4.25 207.687V708.312C4.25 764.005 24.1833 811.981 63.9316 852.047L63.9421 852.058L63.9527 852.068C104.019 891.817 151.995 911.75 207.688 911.75H408.312C471.163 911.75 519.979 894.918 554.167 860.73C588.315 826.582 607.332 775.653 611.742 708.558ZM758 194.25H754.25V198V294.094H707.844H704.094V297.844V348V351.75H707.844H754.25V548.156C754.25 576.505 764.418 600.966 784.635 621.344L784.64 621.349L784.645 621.355C804.876 641.586 829.344 651.75 857.844 651.75H908H911.75V648V597.844V594.094H908H903.312C895.431 594.094 886.4 590.416 876.129 582.263C866.552 574.512 861.594 563.337 861.594 548.156V351.75H908H911.75V348V297.844V294.094H908H861.594V198V194.25H857.844H758Z" fill="black" stroke="#FBFF4A" stroke-width="7.5"/>
<path d="M676.254 529.467V426.333L607.654 529.467H676.254ZM676.254 627V575.2H555.154L550.487 529.233L686.287 353.533H756.521V529.467H787.088V575.2H756.521V627H676.254Z" fill="#FBFF4A"/>
</svg>
