<svg width="20" height="20" viewBox="0 0 20 20" fill="none" xmlns="http://www.w3.org/2000/svg">
<rect x="0.4" y="0.4" width="18.4" height="18.4" stroke="black" stroke-width="0.8"/>
<path d="M9.59999 16.8C8.65448 16.8 7.71822 16.6138 6.84467 16.2519C5.97113 15.8901 5.17741 15.3597 4.50882 14.6912C3.84024 14.0226 3.30989 13.2289 2.94806 12.3553C2.58623 11.4818 2.39999 10.5455 2.39999 9.6C2.39999 8.65448 2.58623 7.71822 2.94806 6.84468C3.3099 5.97113 3.84024 5.17741 4.50883 4.50883C5.17741 3.84025 5.97113 3.3099 6.84467 2.94806C7.71822 2.58623 8.65448 2.4 9.6 2.4C10.5455 2.4 11.4818 2.58623 12.3553 2.94807C13.2289 3.3099 14.0226 3.84025 14.6912 4.50883C15.3597 5.17741 15.8901 5.97113 16.2519 6.84468C16.6138 7.71822 16.8 8.65448 16.8 9.6C16.8 10.5455 16.6138 11.4818 16.2519 12.3553C15.8901 13.2289 15.3597 14.0226 14.6912 14.6912C14.0226 15.3597 13.2289 15.8901 12.3553 16.2519C11.4818 16.6138 10.5455 16.8 9.59999 16.8L9.59999 16.8Z" stroke="#FBFF4A" stroke-width="0.8" stroke-linecap="round"/>
<path d="M7.20001 7.2L12 12" stroke="#FBFF4A" stroke-width="0.8" stroke-linecap="round"/>
<path d="M12 7.2L7.2 12" stroke="#FBFF4A" stroke-width="0.8" stroke-linecap="round"/>
<path d="M14 9.50571C14 11.991 11.9853 14.0057 9.5 14.0057C7.01472 14.0057 5 11.991 5 9.50571C5 7.02042 7.01472 5.00571 9.5 5.00571C11.9853 5.00571 14 7.02042 14 9.50571Z" fill="#FBFF4A"/>
</svg>
