<svg width="278" height="278" viewBox="0 0 278 278" fill="none" xmlns="http://www.w3.org/2000/svg">
<path fill-rule="evenodd" clip-rule="evenodd" d="M7.05954 35.3652C0 49.2204 0 67.3578 0 103.633V173.685C0 209.96 0 228.097 7.05954 241.953C13.2693 254.14 23.1779 264.049 35.3652 270.258C49.2204 277.318 67.3578 277.318 103.633 277.318H173.685C209.96 277.318 228.097 277.318 241.953 270.258C254.14 264.049 264.049 254.14 270.258 241.953C277.318 228.097 277.318 209.96 277.318 173.685V103.633C277.318 67.3577 277.318 49.2204 270.258 35.3652C264.049 23.1779 254.14 13.2693 241.953 7.05954C228.097 0 209.96 0 173.685 0H103.633C67.3577 0 49.2204 0 35.3652 7.05954C23.1779 13.2693 13.2693 23.1779 7.05954 35.3652ZM98.8667 97.282L98.8666 97.2821L66.5536 153.25L66.5535 153.25C53.2195 176.345 46.5526 187.893 47.7488 197.362C48.7045 204.927 52.666 211.789 58.7396 216.399C66.3424 222.17 79.6764 222.17 106.344 222.17H170.97C197.639 222.17 210.973 222.17 218.575 216.399C224.649 211.789 228.61 204.927 229.566 197.362C230.762 187.893 224.095 176.345 210.761 153.25L178.448 97.2821C165.114 74.1869 158.447 62.6393 149.648 58.9405C142.619 55.9857 134.696 55.9857 127.667 58.9405C118.868 62.6393 112.201 74.1869 98.8667 97.282Z" fill="#FBFF4A"/>
<rect x="129.554" y="101.151" width="18.2018" height="67.0865" rx="5.67292" fill="#FBFF4A"/>
<rect x="129.554" y="181.24" width="18.2018" height="18.2018" rx="5.67292" fill="#FBFF4A"/>
</svg>
