<svg width="48" height="48" viewBox="0 0 48 48" fill="none" xmlns="http://www.w3.org/2000/svg">
<circle cx="24" cy="16" r="5.25" fill="#FBFF4A" stroke="#FBFF4A" stroke-width="1.5" stroke-linecap="round"/>
<path d="M27.3194 12.875C27.7397 12.147 28.3664 11.5601 29.1203 11.1883C29.8742 10.8165 30.7214 10.6766 31.5547 10.7864C32.3881 10.8961 33.1702 11.2505 33.8022 11.8047C34.4342 12.3589 34.8876 13.0881 35.1052 13.9C35.3227 14.7119 35.2946 15.5702 35.0245 16.3661C34.7543 17.1621 34.2541 17.86 33.5872 18.3718C32.9204 18.8835 32.1167 19.1859 31.278 19.2409C30.4392 19.2959 29.603 19.1009 28.875 18.6806" stroke="#FBFF4A" stroke-width="1.5"/>
<path d="M20.402 12.4526C19.8981 11.7798 19.2061 11.2714 18.4134 10.9919C17.6207 10.7124 16.7628 10.6742 15.9484 10.8822C15.134 11.0901 14.3995 11.535 13.8379 12.1604C13.2763 12.7858 12.9127 13.5637 12.7932 14.3957C12.6737 15.2277 12.8036 16.0765 13.1664 16.8347C13.5293 17.5929 14.1089 18.2265 14.8318 18.6553C15.5548 19.0842 16.3887 19.289 17.228 19.2439C18.0674 19.1988 18.8745 18.9058 19.5474 18.402" stroke="#FBFF4A" stroke-width="1.5"/>
<path d="M24 25C32.1605 25 34.267 31.6043 34.8108 35.014C34.9847 36.1047 34.1046 37 33 37H15C13.8954 37 13.0153 36.1047 13.1892 35.014C13.733 31.6043 15.8395 25 24 25Z" fill="#FBFF4A" stroke="#FBFF4A" stroke-width="1.5" stroke-linecap="round"/>
<path fill-rule="evenodd" clip-rule="evenodd" d="M38.5931 30.8325C37.8566 27.8917 35.8958 23 31 23C28.8934 23 27.3303 23.9056 26.1742 25.1718C31.3246 26.0277 33.4694 29.9127 34.3626 33H36.79C37.9732 33 38.8805 31.9803 38.5931 30.8325Z" fill="#FBFF4A"/>
<path d="M38.5931 30.8325L37.8655 31.0147L38.5931 30.8325ZM26.1742 25.1718L25.6203 24.6661L24.6897 25.6854L26.0512 25.9117L26.1742 25.1718ZM34.3626 33L33.6422 33.2084L33.7988 33.75H34.3626V33ZM31 23.75C33.1536 23.75 34.6648 24.8097 35.7565 26.2638C36.8642 27.7389 37.5079 29.5864 37.8655 31.0147L39.3206 30.6503C38.9418 29.1378 38.2369 27.069 36.9561 25.3631C35.6594 23.6361 33.7423 22.25 31 22.25V23.75ZM26.728 25.6775C27.7676 24.5389 29.1394 23.75 31 23.75V22.25C28.6475 22.25 26.8929 23.2723 25.6203 24.6661L26.728 25.6775ZM26.0512 25.9117C30.7896 26.6991 32.7858 30.2484 33.6422 33.2084L35.0831 32.7916C34.1531 29.5771 31.8596 25.3563 26.2971 24.432L26.0512 25.9117ZM36.79 32.25H34.3626V33.75H36.79V32.25ZM37.8655 31.0147C38.0181 31.6239 37.5545 32.25 36.79 32.25V33.75C38.3919 33.75 39.7429 32.3367 39.3206 30.6503L37.8655 31.0147Z" fill="#FBFF4A"/>
<path fill-rule="evenodd" clip-rule="evenodd" d="M21.8258 25.1718C20.6698 23.9056 19.1066 23 17 23C12.1042 23 10.1434 27.8917 9.4069 30.8325C9.11946 31.9803 10.0267 33 11.21 33H13.6374C14.5306 29.9127 16.6754 26.0277 21.8258 25.1718Z" fill="#FBFF4A"/>
<path d="M21.8258 25.1718L21.9488 25.9117L23.3103 25.6854L22.3797 24.6661L21.8258 25.1718ZM9.4069 30.8325L10.1344 31.0147L9.4069 30.8325ZM13.6374 33V33.75H14.2012L14.3579 33.2084L13.6374 33ZM17 23.75C18.8606 23.75 20.2324 24.5389 21.272 25.6775L22.3797 24.6661C21.1071 23.2723 19.3525 22.25 17 22.25V23.75ZM10.1344 31.0147C10.4921 29.5864 11.1358 27.7389 12.2435 26.2638C13.3352 24.8097 14.8464 23.75 17 23.75V22.25C14.2578 22.25 12.3407 23.6361 11.0439 25.3631C9.76309 27.069 9.05814 29.1378 8.67936 30.6503L10.1344 31.0147ZM11.21 32.25C10.4454 32.25 9.98186 31.6239 10.1344 31.0147L8.67936 30.6503C8.25705 32.3366 9.60807 33.75 11.21 33.75V32.25ZM13.6374 32.25H11.21V33.75H13.6374V32.25ZM14.3579 33.2084C15.2142 30.2484 17.2104 26.6991 21.9488 25.9117L21.7029 24.432C16.1404 25.3563 13.8469 29.5771 12.9169 32.7916L14.3579 33.2084Z" fill="#FBFF4A"/>
<path d="M35 15C35 17.2091 33.2091 19 31 19C28.7909 19 27 17.2091 27 15C27 12.7909 28.7909 11 31 11C33.2091 11 35 12.7909 35 15Z" fill="#FBFF4A"/>
<path d="M35 15C35 17.2091 33.2091 19 31 19C28.7909 19 27 17.2091 27 15C27 12.7909 28.7909 11 31 11C33.2091 11 35 12.7909 35 15Z" fill="#FBFF4A"/>
<path d="M35 15C35 17.2091 33.2091 19 31 19C28.7909 19 27 17.2091 27 15C27 12.7909 28.7909 11 31 11C33.2091 11 35 12.7909 35 15Z" fill="#FBFF4A"/>
<path d="M21 15C21 17.2091 19.2091 19 17 19C14.7909 19 13 17.2091 13 15C13 12.7909 14.7909 11 17 11C19.2091 11 21 12.7909 21 15Z" fill="#FBFF4A"/>
</svg>
