<svg width="48" height="48" viewBox="0 0 48 48" fill="none" xmlns="http://www.w3.org/2000/svg">
<circle cx="24" cy="16" r="5.25" stroke="#FBFF4A" stroke-width="1.5" stroke-linecap="round"/>
<path d="M27.3194 12.875C27.7397 12.147 28.3664 11.5601 29.1203 11.1883C29.8742 10.8165 30.7214 10.6766 31.5547 10.7864C32.3881 10.8961 33.1702 11.2505 33.8022 11.8047C34.4342 12.3589 34.8876 13.0881 35.1052 13.9C35.3227 14.7119 35.2946 15.5702 35.0245 16.3661C34.7543 17.1621 34.2541 17.86 33.5872 18.3718C32.9204 18.8835 32.1167 19.1859 31.278 19.2409C30.4392 19.2959 29.603 19.1009 28.875 18.6806" stroke="#FBFF4A" stroke-width="1.5"/>
<path d="M20.6806 12.875C20.2603 12.147 19.6336 11.5601 18.8797 11.1883C18.1258 10.8165 17.2786 10.6766 16.4453 10.7864C15.6119 10.8961 14.8298 11.2505 14.1978 11.8047C13.5658 12.3589 13.1124 13.0881 12.8948 13.9C12.6773 14.7119 12.7054 15.5702 12.9755 16.3661C13.2457 17.1621 13.7459 17.86 14.4128 18.3718C15.0796 18.8835 15.8833 19.1859 16.722 19.2409C17.5608 19.2959 18.397 19.1009 19.125 18.6806" stroke="#FBFF4A" stroke-width="1.5"/>
<path d="M24 25C32.1605 25 34.267 31.6043 34.8108 35.014C34.9847 36.1047 34.1046 37 33 37H15C13.8954 37 13.0153 36.1047 13.1892 35.014C13.733 31.6043 15.8395 25 24 25Z" stroke="#FBFF4A" stroke-width="1.5" stroke-linecap="round"/>
<path d="M38.5931 30.8325L37.8655 31.0147L38.5931 30.8325ZM26.1742 25.1718L25.6203 24.6661L24.6897 25.6854L26.0512 25.9117L26.1742 25.1718ZM34.3626 33L33.6422 33.2084L33.7988 33.75H34.3626V33ZM31 23.75C33.1536 23.75 34.6648 24.8097 35.7565 26.2638C36.8642 27.7389 37.5079 29.5864 37.8655 31.0147L39.3206 30.6503C38.9418 29.1378 38.2369 27.069 36.9561 25.3631C35.6594 23.6361 33.7423 22.25 31 22.25V23.75ZM26.728 25.6775C27.7676 24.5389 29.1394 23.75 31 23.75V22.25C28.6475 22.25 26.8929 23.2723 25.6203 24.6661L26.728 25.6775ZM26.0512 25.9117C30.7896 26.6991 32.7858 30.2484 33.6422 33.2084L35.0831 32.7916C34.1531 29.5771 31.8596 25.3563 26.2971 24.432L26.0512 25.9117ZM36.79 32.25H34.3626V33.75H36.79V32.25ZM37.8655 31.0147C38.0181 31.6239 37.5545 32.25 36.79 32.25V33.75C38.3919 33.75 39.7429 32.3367 39.3206 30.6503L37.8655 31.0147Z" fill="#FBFF4A"/>
<path d="M21.8258 25.1718L21.9488 25.9117L23.3103 25.6854L22.3797 24.6661L21.8258 25.1718ZM9.4069 30.8325L10.1344 31.0147L9.4069 30.8325ZM13.6374 33V33.75H14.2012L14.3579 33.2084L13.6374 33ZM17 23.75C18.8606 23.75 20.2324 24.5389 21.2719 25.6775L22.3797 24.6661C21.1071 23.2723 19.3525 22.25 17 22.25V23.75ZM10.1344 31.0147C10.4921 29.5864 11.1358 27.7389 12.2435 26.2638C13.3352 24.8097 14.8464 23.75 17 23.75V22.25C14.2578 22.25 12.3407 23.6361 11.0439 25.3631C9.76309 27.069 9.05814 29.1378 8.67936 30.6503L10.1344 31.0147ZM11.21 32.25C10.4454 32.25 9.98186 31.6239 10.1344 31.0147L8.67936 30.6503C8.25705 32.3366 9.60807 33.75 11.21 33.75V32.25ZM13.6374 32.25H11.21V33.75H13.6374V32.25ZM14.3579 33.2084C15.2142 30.2484 17.2104 26.6991 21.9488 25.9117L21.7029 24.432C16.1404 25.3563 13.8469 29.5771 12.9169 32.7916L14.3579 33.2084Z" fill="#FBFF4A"/>
</svg>
