<svg width="48" height="48" viewBox="0 0 48 48" fill="none" xmlns="http://www.w3.org/2000/svg">
<path fill-rule="evenodd" clip-rule="evenodd" d="M27.9675 5.08322C28.1422 5.42186 28.1856 5.85553 28.2723 6.72288C28.4365 8.36461 28.5185 9.18547 28.8621 9.63585C29.2979 10.2072 30.0068 10.5008 30.7189 10.405C31.2803 10.3294 31.9188 9.80704 33.1957 8.76226C33.8704 8.2103 34.2077 7.93432 34.5706 7.81837C35.0316 7.67109 35.5304 7.69597 35.9744 7.88838C36.3241 8.03987 36.6322 8.34805 37.2486 8.9644L39.0355 10.7513C39.6519 11.3677 39.9601 11.6759 40.1116 12.0255C40.304 12.4696 40.3288 12.9683 40.1816 13.4293C40.0656 13.7922 39.7896 14.1296 39.2377 14.8042C38.1928 16.0812 37.6704 16.7197 37.5949 17.2811C37.4991 17.9932 37.7927 18.702 38.364 19.1379C38.8144 19.4814 39.6353 19.5635 41.2771 19.7277C42.1445 19.8144 42.5782 19.8578 42.9168 20.0325C43.3469 20.2543 43.682 20.6246 43.8599 21.0746C44 21.4289 44 21.8648 44 22.7365V25.2638C44 26.1352 44 26.571 43.86 26.9252C43.682 27.3754 43.3469 27.7458 42.9166 27.9676C42.5781 28.1422 42.1445 28.1856 41.2773 28.2723L41.2772 28.2723C39.636 28.4364 38.8154 28.5185 38.3651 28.8618C37.7935 29.2977 37.4998 30.0068 37.5957 30.7192C37.6713 31.2804 38.1935 31.9187 39.238 33.1952C39.7897 33.8696 40.0656 34.2068 40.1816 34.5696C40.329 35.0307 40.3041 35.5297 40.1115 35.9739C39.9601 36.3233 39.652 36.6314 39.0358 37.2475L37.2487 39.0347C36.6323 39.6511 36.3241 39.9592 35.9745 40.1107C35.5305 40.3031 35.0317 40.328 34.5707 40.1807C34.2078 40.0648 33.8705 39.7888 33.1958 39.2369L33.1958 39.2368C31.9189 38.1921 31.2804 37.6697 30.719 37.5942C30.0068 37.4984 29.298 37.792 28.8622 38.3633C28.5186 38.8136 28.4365 39.6346 28.2723 41.2766C28.1856 42.1444 28.1422 42.5783 27.9674 42.917C27.7456 43.3469 27.3755 43.6819 26.9256 43.8598C26.5712 44 26.1352 44 25.2633 44H22.7365C21.8648 44 21.4289 44 21.0746 43.8599C20.6246 43.682 20.2543 43.3469 20.0325 42.9168C19.8578 42.5782 19.8144 42.1445 19.7277 41.2771C19.5635 39.6353 19.4814 38.8144 19.1378 38.364C18.702 37.7927 17.9933 37.4992 17.2811 37.5949C16.7197 37.6704 16.0812 38.1929 14.8042 39.2377L14.8041 39.2377C14.1295 39.7897 13.7921 40.0657 13.4292 40.1817C12.9682 40.3289 12.4695 40.3041 12.0254 40.1117C11.6758 39.9602 11.3676 39.652 10.7512 39.0356L8.96434 37.2487C8.34796 36.6323 8.03977 36.3241 7.88828 35.9745C7.69588 35.5305 7.671 35.0317 7.81826 34.5707C7.93422 34.2078 8.21021 33.8705 8.76221 33.1958C9.80702 31.9188 10.3294 31.2803 10.4049 30.7189C10.5007 30.0067 10.2071 29.2979 9.63585 28.8621C9.18547 28.5185 8.3646 28.4365 6.72286 28.2723C5.85553 28.1856 5.42186 28.1422 5.08322 27.9675C4.65312 27.7457 4.31803 27.3754 4.14009 26.9254C4 26.571 4 26.1352 4 25.2636V22.7367C4 21.8648 4 21.4288 4.14017 21.0744C4.3181 20.6245 4.65308 20.2544 5.08305 20.0326C5.42176 19.8578 5.85554 19.8144 6.7231 19.7277H6.72311H6.72312C8.36529 19.5635 9.18638 19.4814 9.63683 19.1376C10.2079 18.7018 10.5014 17.9933 10.4057 17.2813C10.3303 16.7197 9.8077 16.081 8.76255 14.8036C8.21033 14.1287 7.93422 13.7912 7.81827 13.4281C7.67113 12.9673 7.696 12.4688 7.88826 12.0249C8.03976 11.6751 8.34806 11.3668 8.96467 10.7502L10.7513 8.96354C11.3677 8.34714 11.6759 8.03895 12.0255 7.88746C12.4696 7.69507 12.9683 7.67019 13.4293 7.81744C13.7922 7.93339 14.1296 8.20944 14.8044 8.76153C16.0812 9.80621 16.7196 10.3285 17.2809 10.4041C17.9932 10.5001 18.7023 10.2064 19.1381 9.63484C19.4815 9.18453 19.5636 8.36389 19.7277 6.72261C19.8144 5.85551 19.8578 5.42197 20.0324 5.08341C20.2542 4.65315 20.6246 4.31796 21.0748 4.14002C21.4291 4 21.8648 4 22.7362 4H25.2636C26.1352 4 26.5711 4 26.9254 4.1401C27.3754 4.31803 27.7457 4.65312 27.9675 5.08322ZM24 32C28.4183 32 32 28.4183 32 24C32 19.5817 28.4183 16 24 16C19.5817 16 16 19.5817 16 24C16 28.4183 19.5817 32 24 32Z" fill="#FBFF4A"/>
<path d="M28.2723 6.72288L29.0186 6.64825L28.2723 6.72288ZM27.9675 5.08322L27.301 5.42701V5.42701L27.9675 5.08322ZM28.8621 9.63585L29.4584 9.18096L29.4584 9.18096L28.8621 9.63585ZM30.7189 10.405L30.6189 9.66165H30.6189L30.7189 10.405ZM33.1957 8.76226L33.6707 9.34273L33.6707 9.34273L33.1957 8.76226ZM34.5706 7.81837L34.7989 8.53279L34.5706 7.81837ZM35.9744 7.88838L36.2726 7.20021L36.2726 7.20021L35.9744 7.88838ZM37.2486 8.9644L36.7182 9.49473V9.49473L37.2486 8.9644ZM39.0355 10.7513L39.5658 10.221L39.0355 10.7513ZM40.1116 12.0255L40.7997 11.7273L40.7997 11.7273L40.1116 12.0255ZM40.1816 13.4293L40.896 13.6575L40.896 13.6575L40.1816 13.4293ZM39.2377 14.8042L38.6572 14.3293V14.3293L39.2377 14.8042ZM37.5949 17.2811L36.8516 17.1811V17.1811L37.5949 17.2811ZM38.364 19.1379L37.9091 19.7341L38.364 19.1379ZM41.2771 19.7277L41.3517 18.9814L41.2771 19.7277ZM42.9168 20.0325L43.2606 19.3659L43.2606 19.3659L42.9168 20.0325ZM43.8599 21.0746L44.5574 20.7988V20.7988L43.8599 21.0746ZM43.86 26.9252L43.1625 26.6495V26.6495L43.86 26.9252ZM42.9166 27.9676L43.2604 28.6342H43.2604L42.9166 27.9676ZM41.2773 28.2723L41.2026 27.526L41.1782 27.5284L41.154 27.5325L41.2773 28.2723ZM41.2772 28.2723L41.3518 29.0186L41.3763 29.0161L41.4005 29.0121L41.2772 28.2723ZM38.3651 28.8618L37.9103 28.2654V28.2654L38.3651 28.8618ZM37.5957 30.7192L36.8524 30.8194V30.8194L37.5957 30.7192ZM39.238 33.1952L38.6575 33.6701L39.238 33.1952ZM40.1816 34.5696L39.4672 34.7979V34.7979L40.1816 34.5696ZM40.1115 35.9739L39.4234 35.6756V35.6756L40.1115 35.9739ZM39.0358 37.2475L39.5662 37.7779L39.0358 37.2475ZM37.2487 39.0347L36.7183 38.5044V38.5044L37.2487 39.0347ZM35.9745 40.1107L36.2727 40.7989H36.2727L35.9745 40.1107ZM34.5707 40.1807L34.3425 40.8952H34.3425L34.5707 40.1807ZM33.1958 39.2369L33.6708 38.6563L33.6644 38.6512L33.1958 39.2369ZM33.1958 39.2368L32.7208 39.8173L32.7273 39.8225L33.1958 39.2368ZM30.719 37.5942L30.819 36.8508H30.819L30.719 37.5942ZM28.8622 38.3633L29.4585 38.8182L29.4585 38.8181L28.8622 38.3633ZM28.2723 41.2766L27.5261 41.202L28.2723 41.2766ZM27.9674 42.917L27.3009 42.5731L27.3009 42.5731L27.9674 42.917ZM26.9256 43.8598L26.6498 43.1624H26.6498L26.9256 43.8598ZM21.0746 43.8599L21.3504 43.1624L21.0746 43.8599ZM20.0325 42.9168L20.699 42.573L20.0325 42.9168ZM19.7277 41.2771L18.9814 41.3517L19.7277 41.2771ZM19.1378 38.364L18.5415 38.8189L18.5415 38.8189L19.1378 38.364ZM17.2811 37.5949L17.1812 36.8516H17.1812L17.2811 37.5949ZM14.8042 39.2377L14.3292 38.6572L14.3173 38.667L14.3059 38.6772L14.8042 39.2377ZM14.8041 39.2377L15.2791 39.8182L15.2909 39.8085L15.3024 39.7983L14.8041 39.2377ZM13.4292 40.1817L13.6574 40.8961H13.6574L13.4292 40.1817ZM12.0254 40.1117L11.7273 40.7998H11.7273L12.0254 40.1117ZM10.7512 39.0356L11.2815 38.5052H11.2815L10.7512 39.0356ZM8.96434 37.2487L8.434 37.779H8.43401L8.96434 37.2487ZM7.88828 35.9745L8.57646 35.6763H8.57645L7.88828 35.9745ZM7.81826 34.5707L8.5327 34.799V34.799L7.81826 34.5707ZM8.76221 33.1958L9.34268 33.6707H9.34268L8.76221 33.1958ZM10.4049 30.7189L11.1482 30.8189H11.1482L10.4049 30.7189ZM9.63585 28.8621L10.0907 28.2658H10.0907L9.63585 28.8621ZM6.72286 28.2723L6.64823 29.0186L6.64824 29.0186L6.72286 28.2723ZM5.08322 27.9675L5.42701 27.301L5.08322 27.9675ZM4.14009 26.9254L3.44263 27.2011H3.44263L4.14009 26.9254ZM4.14017 21.0744L3.44273 20.7986H3.44273L4.14017 21.0744ZM5.08305 20.0326L4.73919 19.366L4.73919 19.366L5.08305 20.0326ZM6.7231 19.7277V18.9777H6.68569L6.64847 18.9814L6.7231 19.7277ZM6.72312 19.7277V20.4777H6.76052L6.79775 20.474L6.72312 19.7277ZM9.63683 19.1376L9.18185 18.5414H9.18185L9.63683 19.1376ZM10.4057 17.2813L9.66242 17.3812L10.4057 17.2813ZM8.76255 14.8036L9.34302 14.3287L9.34302 14.3287L8.76255 14.8036ZM7.81827 13.4281L7.10381 13.6562V13.6562L7.81827 13.4281ZM7.88826 12.0249L7.20004 11.7268L7.88826 12.0249ZM8.96467 10.7502L9.495 11.2805L8.96467 10.7502ZM10.7513 8.96354L10.221 8.43321L10.7513 8.96354ZM12.0255 7.88746L11.7274 7.19928L12.0255 7.88746ZM13.4293 7.81744L13.6575 7.10301L13.4293 7.81744ZM14.8044 8.76153L14.3295 9.34199L14.3295 9.34199L14.8044 8.76153ZM17.2809 10.4041L17.381 9.66084H17.381L17.2809 10.4041ZM19.1381 9.63484L18.5418 9.18003L19.1381 9.63484ZM19.7277 6.72261L20.474 6.79724V6.79724L19.7277 6.72261ZM20.0324 5.08341L19.3658 4.73968L19.3658 4.73969L20.0324 5.08341ZM21.0748 4.14002L21.3505 4.83751L21.3505 4.83751L21.0748 4.14002ZM26.9254 4.1401L27.2011 3.44263V3.44263L26.9254 4.1401ZM29.0186 6.64825C28.9762 6.22449 28.9411 5.87017 28.8925 5.58059C28.8427 5.28364 28.7714 5.00562 28.6341 4.73943L27.301 5.42701C27.3383 5.49946 27.3761 5.6076 27.4132 5.82898C27.4516 6.05773 27.4817 6.35392 27.526 6.79751L29.0186 6.64825ZM29.4584 9.18096C29.3985 9.10241 29.3169 8.93129 29.2381 8.49329C29.1605 8.06245 29.1019 7.4817 29.0186 6.64825L27.526 6.79751C27.6068 7.60578 27.6713 8.25633 27.7618 8.75895C27.8509 9.25441 27.9822 9.71891 28.2658 10.0907L29.4584 9.18096ZM30.6189 9.66165C30.1738 9.72153 29.7308 9.53803 29.4584 9.18096L28.2658 10.0907C28.8651 10.8763 29.8397 11.28 30.8189 11.1483L30.6189 9.66165ZM32.7208 8.18179C32.0725 8.71219 31.6204 9.08139 31.261 9.33121C30.8955 9.58519 30.7168 9.64848 30.6189 9.66165L30.8189 11.1483C31.2824 11.0859 31.7036 10.8502 32.117 10.563C32.5364 10.2715 33.042 9.85711 33.6707 9.34273L32.7208 8.18179ZM34.3424 7.10394C34.0571 7.19508 33.8101 7.34127 33.5649 7.51598C33.3257 7.68636 33.0504 7.91212 32.7208 8.18179L33.6707 9.34273C34.0157 9.06044 34.2463 8.87223 34.4353 8.73763C34.6181 8.60738 34.7212 8.5576 34.7989 8.53279L34.3424 7.10394ZM36.2726 7.20021C35.6621 6.93564 34.9763 6.90143 34.3424 7.10394L34.7989 8.53279C35.087 8.44075 35.3987 8.45629 35.6763 8.57655L36.2726 7.20021ZM37.7789 8.43407C37.4778 8.13294 37.2263 7.8809 37.0053 7.68758C36.7787 7.48932 36.5475 7.31929 36.2726 7.20021L35.6762 8.57655C35.751 8.60896 35.8487 8.66876 36.0177 8.81656C36.1922 8.96928 36.403 9.17951 36.7182 9.49473L37.7789 8.43407ZM39.5658 10.221L37.7789 8.43407L36.7182 9.49473L38.5052 11.2817L39.5658 10.221ZM40.7997 11.7273C40.6806 11.4525 40.5106 11.2213 40.3124 10.9946C40.119 10.7736 39.867 10.5221 39.5658 10.221L38.5052 11.2817C38.8204 11.5969 39.0306 11.8077 39.1834 11.9823C39.3312 12.1512 39.391 12.2489 39.4234 12.3237L40.7997 11.7273ZM40.896 13.6575C41.0985 13.0237 41.0643 12.3379 40.7997 11.7273L39.4234 12.3237C39.5436 12.6012 39.5592 12.9129 39.4671 13.2011L40.896 13.6575ZM39.8181 15.2791C40.0878 14.9495 40.3136 14.6742 40.4839 14.4351C40.6587 14.1898 40.8049 13.9428 40.896 13.6575L39.4671 13.2011C39.4423 13.2787 39.3926 13.3819 39.2623 13.5647C39.1277 13.7536 38.9395 13.9842 38.6572 14.3293L39.8181 15.2791ZM38.3382 17.3811C38.3514 17.2832 38.4147 17.1045 38.6687 16.739C38.9185 16.3795 39.2877 15.9274 39.8181 15.2791L38.6572 14.3293C38.1428 14.958 37.7284 15.4636 37.4369 15.883C37.1496 16.2964 36.914 16.7176 36.8516 17.1811L38.3382 17.3811ZM38.8189 18.5416C38.4619 18.2692 38.2784 17.8262 38.3382 17.3811L36.8516 17.1811C36.7199 18.1603 37.1236 19.1349 37.9091 19.7341L38.8189 18.5416ZM41.3517 18.9814C40.5182 18.8981 39.9374 18.8394 39.5066 18.7619C39.0686 18.6831 38.8975 18.6015 38.8189 18.5416L37.9091 19.7341C38.2809 20.0178 38.7455 20.149 39.2409 20.2382C39.7436 20.3287 40.3941 20.3932 41.2024 20.474L41.3517 18.9814ZM43.2606 19.3659C42.9944 19.2286 42.7164 19.1573 42.4194 19.1075C42.1298 19.0589 41.7755 19.0238 41.3517 18.9814L41.2024 20.474C41.6461 20.5183 41.9423 20.5484 42.171 20.5868C42.3924 20.6239 42.5006 20.6617 42.573 20.699L43.2606 19.3659ZM44.5574 20.7988C44.3127 20.18 43.852 19.6709 43.2606 19.3659L42.573 20.699C42.8418 20.8377 43.0512 21.0691 43.1624 21.3504L44.5574 20.7988ZM44.75 22.7365C44.75 22.3106 44.7504 21.9545 44.7308 21.6615C44.7108 21.3611 44.6675 21.0774 44.5574 20.7988L43.1624 21.3504C43.1924 21.4262 43.2192 21.5375 43.2342 21.7615C43.2496 21.993 43.25 22.2907 43.25 22.7365H44.75ZM44.75 25.2638V22.7365H43.25V25.2638H44.75ZM44.5575 27.2009C44.6675 26.9225 44.7108 26.6388 44.7308 26.3384C44.7504 26.0455 44.75 25.6895 44.75 25.2638H43.25C43.25 25.7095 43.2496 26.0071 43.2342 26.2385C43.2192 26.4624 43.1924 26.5737 43.1625 26.6495L44.5575 27.2009ZM43.2604 28.6342C43.8519 28.3292 44.3128 27.8199 44.5575 27.2009L43.1625 26.6495C43.0513 26.9309 42.8418 27.1624 42.5729 27.301L43.2604 28.6342ZM41.3519 29.0186C41.7756 28.9762 42.1298 28.9411 42.4194 28.8925C42.7163 28.8427 42.9942 28.7714 43.2604 28.6342L42.5729 27.301C42.5005 27.3384 42.3923 27.3761 42.171 27.4132C41.9423 27.4516 41.6461 27.4816 41.2026 27.526L41.3519 29.0186ZM41.4005 29.0121L41.4006 29.0121L41.154 27.5325L41.1539 27.5325L41.4005 29.0121ZM38.8199 29.4582C38.8984 29.3983 39.0695 29.3168 39.5074 29.238C39.9381 29.1605 40.5187 29.1019 41.3518 29.0186L41.2026 27.526C40.3946 27.6068 39.7442 27.6713 39.2417 27.7617C38.7464 27.8508 38.2821 27.982 37.9103 28.2654L38.8199 29.4582ZM38.339 30.6191C38.279 30.1738 38.4626 29.7306 38.8199 29.4582L37.9103 28.2654C37.1244 28.8648 36.7205 29.8398 36.8524 30.8194L38.339 30.6191ZM39.8184 32.7202C39.2882 32.0722 38.9191 31.6203 38.6694 31.2609C38.4155 30.8956 38.3522 30.717 38.339 30.6191L36.8524 30.8194C36.9149 31.2827 37.1505 31.7038 37.4377 32.117C37.729 32.5362 38.1433 33.0416 38.6575 33.6701L39.8184 32.7202ZM40.896 34.3412C40.8048 34.056 40.6587 33.8092 40.484 33.564C40.3137 33.325 40.088 33.0497 39.8184 32.7202L38.6575 33.6701C38.9397 34.015 39.1278 34.2456 39.2624 34.4344C39.3926 34.6172 39.4424 34.7203 39.4672 34.7979L40.896 34.3412ZM40.7997 36.2722C41.0644 35.6614 41.0986 34.9753 40.896 34.3412L39.4672 34.7979C39.5593 35.0861 39.5437 35.398 39.4234 35.6756L40.7997 36.2722ZM39.5662 37.7779C39.8672 37.4768 40.1191 37.2254 40.3124 37.0045C40.5106 36.778 40.6806 36.5469 40.7997 36.2721L39.4234 35.6756C39.391 35.7503 39.3312 35.848 39.1835 36.0169C39.0308 36.1914 38.8206 36.4021 38.5055 36.7172L39.5662 37.7779ZM37.779 39.565L39.5662 37.7779L38.5055 36.7172L36.7183 38.5044L37.779 39.565ZM36.2727 40.7989C36.5475 40.6798 36.7788 40.5098 37.0054 40.3115C37.2264 40.1182 37.4779 39.8662 37.779 39.565L36.7183 38.5044C36.4031 38.8196 36.1923 39.0298 36.0178 39.1826C35.8488 39.3303 35.7511 39.3902 35.6763 39.4226L36.2727 40.7989ZM34.3425 40.8952C34.9764 41.0977 35.6621 41.0635 36.2727 40.7989L35.6763 39.4226C35.3988 39.5428 35.0871 39.5584 34.799 39.4663L34.3425 40.8952ZM32.7209 39.8173C33.0505 40.087 33.3258 40.3128 33.565 40.4831C33.8102 40.6578 34.0572 40.804 34.3425 40.8952L34.799 39.4663C34.7213 39.4415 34.6182 39.3917 34.4353 39.2615C34.2464 39.1269 34.0158 38.9387 33.6708 38.6564L32.7209 39.8173ZM32.7273 39.8225L32.7273 39.8225L33.6644 38.6512L33.6643 38.6512L32.7273 39.8225ZM30.619 38.3375C30.7169 38.3506 30.8956 38.4139 31.2611 38.6679C31.6205 38.9177 32.0726 39.2869 32.7209 39.8173L33.6707 38.6564C33.0421 38.142 32.5365 37.7276 32.1171 37.4362C31.7037 37.1489 31.2825 36.9132 30.819 36.8508L30.619 38.3375ZM29.4585 38.8181C29.7309 38.4611 30.1739 38.2776 30.619 38.3375L30.819 36.8508C29.8398 36.7191 28.8652 37.1228 28.2659 37.9084L29.4585 38.8181ZM29.0186 41.3513C29.102 40.5177 29.1606 39.9368 29.2382 39.5059C29.317 39.0678 29.3986 38.8967 29.4585 38.8182L28.2659 37.9084C27.9823 38.2802 27.851 38.7448 27.7619 39.2403C27.6714 39.743 27.6069 40.3936 27.5261 41.202L29.0186 41.3513ZM28.6339 43.2609C28.7713 42.9946 28.8426 42.7165 28.8925 42.4194C28.9412 42.1297 28.9762 41.7752 29.0186 41.3513L27.5261 41.202C27.4817 41.6458 27.4517 41.9421 27.4132 42.171C27.376 42.3925 27.3383 42.5007 27.3009 42.5731L28.6339 43.2609ZM27.2014 44.5573C27.82 44.3126 28.329 43.852 28.6339 43.2609L27.3009 42.5731C27.1623 42.8418 26.9309 43.0512 26.6498 43.1624L27.2014 44.5573ZM25.2633 44.75C25.6893 44.75 26.0454 44.7504 26.3385 44.7308C26.639 44.7107 26.9228 44.6674 27.2014 44.5573L26.6498 43.1624C26.5739 43.1924 26.4625 43.2192 26.2385 43.2341C26.007 43.2496 25.7092 43.25 25.2633 43.25V44.75ZM22.7365 44.75H25.2633V43.25H22.7365V44.75ZM20.7988 44.5574C21.0774 44.6675 21.3611 44.7108 21.6615 44.7308C21.9545 44.7504 22.3106 44.75 22.7365 44.75V43.25C22.2907 43.25 21.993 43.2496 21.7615 43.2342C21.5375 43.2192 21.4262 43.1924 21.3504 43.1624L20.7988 44.5574ZM19.3659 43.2606C19.6709 43.852 20.18 44.3127 20.7988 44.5574L21.3504 43.1624C21.0691 43.0512 20.8377 42.8418 20.699 42.573L19.3659 43.2606ZM18.9814 41.3517C19.0238 41.7755 19.0589 42.1298 19.1075 42.4194C19.1573 42.7164 19.2286 42.9944 19.3659 43.2606L20.699 42.573C20.6617 42.5006 20.6239 42.3924 20.5868 42.171C20.5484 41.9423 20.5183 41.6461 20.474 41.2025L18.9814 41.3517ZM18.5415 38.8189C18.6015 38.8975 18.6831 39.0686 18.7619 39.5066C18.8394 39.9375 18.8981 40.5182 18.9814 41.3517L20.474 41.2025C20.3932 40.3942 20.3287 39.7436 20.2382 39.2409C20.149 38.7455 20.0178 38.2809 19.7341 37.9091L18.5415 38.8189ZM17.3811 38.3382C17.8262 38.2784 18.2692 38.4619 18.5415 38.8189L19.7341 37.9091C19.1349 37.1236 18.1603 36.7199 17.1812 36.8516L17.3811 38.3382ZM15.2791 39.8182C15.9274 39.2877 16.3795 38.9185 16.739 38.6687C17.1045 38.4147 17.2832 38.3514 17.3811 38.3382L17.1812 36.8516C16.7177 36.914 16.2964 37.1496 15.883 37.4369C15.4636 37.7284 14.9579 38.1428 14.3292 38.6572L15.2791 39.8182ZM15.3024 39.7983L15.3024 39.7983L14.3059 38.6772L14.3059 38.6772L15.3024 39.7983ZM13.6574 40.8961C13.9427 40.805 14.1897 40.6588 14.435 40.484C14.6741 40.3137 14.9494 40.0879 15.2791 39.8182L14.3292 38.6573C13.9842 38.9396 13.7535 39.1278 13.5646 39.2624C13.3817 39.3926 13.2786 39.4424 13.2009 39.4672L13.6574 40.8961ZM11.7273 40.7998C12.3378 41.0644 13.0236 41.0986 13.6574 40.8961L13.2009 39.4672C12.9128 39.5593 12.6011 39.5437 12.3236 39.4235L11.7273 40.7998ZM10.2209 39.5659C10.522 39.8671 10.7735 40.1191 10.9946 40.3125C11.2212 40.5107 11.4524 40.6808 11.7273 40.7998L12.3236 39.4235C12.2488 39.3911 12.1511 39.3313 11.9822 39.1835C11.8076 39.0307 11.5968 38.8205 11.2815 38.5052L10.2209 39.5659ZM8.43401 37.779L10.2209 39.5659L11.2815 38.5052L9.49467 36.7184L8.43401 37.779ZM7.2001 36.2727C7.31918 36.5475 7.48922 36.7787 7.68748 37.0054C7.88082 37.2264 8.13286 37.4779 8.434 37.779L9.49467 36.7184C9.17943 36.4031 8.96919 36.1923 8.81647 36.0178C8.66867 35.8488 8.60886 35.7511 8.57646 35.6763L7.2001 36.2727ZM7.10383 34.3425C6.90135 34.9764 6.93555 35.6621 7.2001 36.2727L8.57645 35.6763C8.45621 35.3988 8.44066 35.0871 8.5327 34.799L7.10383 34.3425ZM8.18174 32.7209C7.91205 33.0505 7.68628 33.3258 7.51589 33.565C7.34117 33.8102 7.19498 34.0572 7.10383 34.3425L8.5327 34.799C8.5575 34.7213 8.60729 34.6182 8.73755 34.4353C8.87214 34.2464 9.06037 34.0158 9.34268 33.6707L8.18174 32.7209ZM9.66164 30.6189C9.64847 30.7168 9.58517 30.8955 9.33119 31.261C9.08136 31.6205 8.71216 32.0726 8.18174 32.7209L9.34268 33.6707C9.85707 33.042 10.2715 32.5364 10.5629 32.117C10.8502 31.7036 11.0859 31.2824 11.1482 30.8189L9.66164 30.6189ZM9.18095 29.4584C9.53802 29.7308 9.72151 30.1738 9.66164 30.6189L11.1482 30.8189C11.28 29.8397 10.8763 28.8651 10.0907 28.2658L9.18095 29.4584ZM6.64824 29.0186C7.48169 29.1019 8.06244 29.1605 8.49328 29.2381C8.93128 29.3169 9.1024 29.3985 9.18095 29.4584L10.0907 28.2658C9.71891 27.9822 9.25441 27.8509 8.75894 27.7618C8.25632 27.6713 7.60577 27.6068 6.79749 27.526L6.64824 29.0186ZM4.73943 28.6341C5.00563 28.7714 5.28364 28.8427 5.58059 28.8925C5.87016 28.9411 6.22448 28.9762 6.64823 29.0186L6.79749 27.526C6.35391 27.4816 6.05773 27.4516 5.82897 27.4132C5.6076 27.3761 5.49946 27.3383 5.42701 27.301L4.73943 28.6341ZM3.44263 27.2011C3.68729 27.82 4.14803 28.3291 4.73943 28.6341L5.42701 27.301C5.1582 27.1623 4.94877 26.9309 4.83756 26.6496L3.44263 27.2011ZM3.25 25.2636C3.25 25.6894 3.24961 26.0455 3.26918 26.3384C3.28924 26.6389 3.33251 26.9226 3.44263 27.2011L4.83756 26.6496C4.80759 26.5738 4.7808 26.4625 4.76584 26.2385C4.75039 26.007 4.75 25.7093 4.75 25.2636H3.25ZM3.25 22.7367V25.2636H4.75V22.7367H3.25ZM3.44273 20.7986C3.33255 21.0772 3.28926 21.361 3.26919 21.6615C3.24961 21.9546 3.25 22.3107 3.25 22.7367H4.75C4.75 22.2908 4.75039 21.993 4.76585 21.7615C4.78082 21.5375 4.80762 21.4261 4.83761 21.3503L3.44273 20.7986ZM4.73919 19.366C4.14799 19.671 3.68739 20.18 3.44273 20.7986L4.8376 21.3503C4.94881 21.0691 5.15818 20.8377 5.4269 20.6991L4.73919 19.366ZM6.64847 18.9814C6.22461 19.0238 5.8702 19.0588 5.58055 19.1075C5.28352 19.1574 5.00544 19.2287 4.73919 19.366L5.4269 20.6991C5.49936 20.6617 5.60753 20.624 5.82896 20.5868C6.05777 20.5484 6.35403 20.5183 6.79773 20.474L6.64847 18.9814ZM6.72311 18.9777H6.7231V20.4777H6.72311V18.9777ZM6.72312 18.9777H6.72311V20.4777H6.72312V18.9777ZM9.18185 18.5414C9.10328 18.6013 8.93213 18.683 8.49402 18.7618C8.06307 18.8394 7.48217 18.898 6.64849 18.9814L6.79775 20.474C7.60624 20.3931 8.25696 20.3286 8.75972 20.2381C9.2553 20.1489 9.71992 20.0176 10.0918 19.7339L9.18185 18.5414ZM9.66242 17.3812C9.7222 17.8262 9.53877 18.269 9.18185 18.5414L10.0918 19.7339C10.877 19.1347 11.2806 18.1604 11.1491 17.1814L9.66242 17.3812ZM8.18209 15.2786C8.71267 15.9271 9.082 16.3793 9.3319 16.7389C9.58596 17.1045 9.64925 17.2833 9.66242 17.3812L11.1491 17.1814C11.0868 16.7178 10.851 16.2964 10.5637 15.8829C10.2721 15.4634 9.85758 14.9576 9.34302 14.3287L8.18209 15.2786ZM7.10381 13.6562C7.19495 13.9417 7.34118 14.1888 7.51597 14.4341C7.68642 14.6734 7.91228 14.9488 8.18209 15.2786L9.34302 14.3287C9.0606 13.9835 8.87229 13.7528 8.73764 13.5638C8.60733 13.3809 8.55754 13.2777 8.53273 13.2L7.10381 13.6562ZM7.20004 11.7268C6.93568 12.3371 6.90149 13.0226 7.10381 13.6562L8.53274 13.2C8.44077 12.912 8.45631 12.6004 8.57648 12.323L7.20004 11.7268ZM8.43434 10.2198C8.13308 10.5211 7.88094 10.7727 7.68754 10.9938C7.48922 11.2205 7.31913 11.4518 7.20004 11.7268L8.57648 12.323C8.60889 12.2481 8.6687 12.1504 8.81655 11.9814C8.96933 11.8067 9.17965 11.5959 9.495 11.2805L8.43434 10.2198ZM10.221 8.43321L8.43434 10.2198L9.495 11.2805L11.2816 9.49387L10.221 8.43321ZM11.7274 7.19928C11.4525 7.31836 11.2213 7.4884 10.9946 7.68667C10.7736 7.88 10.5221 8.13205 10.221 8.43321L11.2816 9.49387C11.5969 9.17863 11.8077 8.96838 11.9823 8.81565C12.1512 8.66785 12.2489 8.60804 12.3237 8.57563L11.7274 7.19928ZM13.6575 7.10301C13.0236 6.90054 12.3379 6.93474 11.7274 7.19928L12.3237 8.57563C12.6012 8.45539 12.9129 8.43984 13.201 8.53188L13.6575 7.10301ZM15.2793 8.18106C14.9496 7.91132 14.6743 7.68552 14.4351 7.51511C14.1898 7.34036 13.9428 7.19416 13.6575 7.10301L13.201 8.53188C13.2787 8.55668 13.3818 8.60647 13.5647 8.73676C13.7537 8.87138 13.9844 9.05964 14.3295 9.34199L15.2793 8.18106ZM17.381 9.66084C17.2831 9.64766 17.1044 9.58436 16.739 9.33038C16.3796 9.08057 15.9275 8.71141 15.2793 8.18106L14.3295 9.34199C14.9581 9.85633 15.4636 10.2707 15.8829 10.5621C16.2963 10.8494 16.7174 11.085 17.1808 11.1474L17.381 9.66084ZM18.5418 9.18003C18.2694 9.53724 17.8262 9.7208 17.381 9.66084L17.1808 11.1474C18.1603 11.2793 19.1352 10.8755 19.7345 10.0896L18.5418 9.18003ZM18.9815 6.64798C18.8981 7.48121 18.8395 8.0618 18.762 8.49252C18.6832 8.93041 18.6017 9.10149 18.5418 9.18003L19.7345 10.0896C20.018 9.71787 20.1492 9.25348 20.2383 8.75816C20.3287 8.25566 20.3932 7.60529 20.474 6.79724L18.9815 6.64798ZM19.3658 4.73969C19.2285 5.00582 19.1573 5.28376 19.1075 5.58063C19.0589 5.87013 19.0238 6.22434 18.9815 6.64798L20.474 6.79724C20.5184 6.35378 20.5484 6.05768 20.5868 5.82899C20.6239 5.60767 20.6616 5.49956 20.699 5.42713L19.3658 4.73969ZM20.7991 3.44253C20.1801 3.6872 19.6708 4.14808 19.3658 4.73968L20.699 5.42713C20.8376 5.15822 21.0691 4.94873 21.3505 4.83751L20.7991 3.44253ZM22.7362 3.25C22.3104 3.25 21.9545 3.24961 21.6616 3.26917C21.3612 3.28922 21.0776 3.33246 20.7991 3.44253L21.3505 4.83751C21.4263 4.80756 21.5376 4.78079 21.7615 4.76584C21.9929 4.75039 22.2905 4.75 22.7362 4.75V3.25ZM25.2636 3.25H22.7362V4.75H25.2636V3.25ZM27.2011 3.44263C26.9226 3.33251 26.6389 3.28924 26.3384 3.26918C26.0455 3.24961 25.6894 3.25 25.2636 3.25V4.75C25.7093 4.75 26.007 4.75039 26.2385 4.76584C26.4625 4.7808 26.5738 4.80759 26.6496 4.83756L27.2011 3.44263ZM28.6341 4.73943C28.3291 4.14803 27.82 3.68729 27.2011 3.44263L26.6496 4.83756C26.9309 4.94877 27.1623 5.1582 27.301 5.42701L28.6341 4.73943ZM31.25 24C31.25 28.0041 28.0041 31.25 24 31.25V32.75C28.8325 32.75 32.75 28.8325 32.75 24H31.25ZM24 16.75C28.0041 16.75 31.25 19.9959 31.25 24H32.75C32.75 19.1675 28.8325 15.25 24 15.25V16.75ZM16.75 24C16.75 19.9959 19.9959 16.75 24 16.75V15.25C19.1675 15.25 15.25 19.1675 15.25 24H16.75ZM24 31.25C19.9959 31.25 16.75 28.0041 16.75 24H15.25C15.25 28.8325 19.1675 32.75 24 32.75V31.25Z" fill="#FBFF4A"/>
</svg>
